<svg xmlns="http://www.w3.org/2000/svg" width="1860" height="347" viewBox="0 0 1860 347" fill="none">
  <mask id="mask0_7141_14023" style="mask-type:alpha" maskUnits="userSpaceOnUse" x="0" y="0" width="1860" height="347">
    <rect width="1860" height="346.167" fill="#9F2626"></rect>
  </mask>
  <g mask="url(#mask0_7141_14023)">
    <path class="listivo-fill-color-4" fill-rule="evenodd" clip-rule="evenodd"
      d="M-226.538 -365.563C-259.584 -305.918 -293.883 -19.9406 -246.744 54.7781C-205.715 119.813 -11.2442 77.1754 58.5682 126.516C149.395 190.709 278.357 335.737 376.685 332.497C476.173 329.218 518.075 301.853 546.796 228.794C572.33 163.841 557.694 87.2566 518.884 9.7146C480.008 -67.9582 367.155 -161.559 276.305 -204.717C191.631 -244.941 32.7325 -233.948 -48.3659 -227.872C-133.43 -221.499 -193.574 -425.059 -226.538 -365.563Z"
      fill="#F2F4F8"></path>
    <path class="listivo-fill-primary-1" fill-rule="evenodd" clip-rule="evenodd"
      d="M-183.341 -386.412C-216.388 -326.767 -250.686 -40.7898 -203.548 33.9288C-162.519 98.9636 88.4318 89.9569 158.244 139.298C249.071 203.49 314.274 301.972 412.603 298.731C512.091 295.453 577.041 261.909 605.762 188.85C631.296 123.897 600.891 66.4074 562.08 -11.1346C523.205 -88.8074 439.799 -195.283 319.502 -225.566C187.761 -258.731 75.929 -254.797 -5.16934 -248.721C-90.2338 -242.348 -150.377 -445.908 -183.341 -386.412Z"
      fill="#3F71F0"></path>
    <path class="listivo-fill-color-4" fill-rule="evenodd" clip-rule="evenodd"
      d="M1064.48 -262.663C994.06 -127.345 902.29 -0.624212 870.095 129.241C830.926 287.237 784.355 506.676 870.425 543.531C1061.3 616.222 1108.06 371.298 1234.46 296.208C1360.93 221.077 1602.31 270.536 1767.54 196.515C1875.41 148.191 2239.13 6.53034 2372.9 -473.059C2424.17 -656.859 1911.78 -812.972 1810.58 -872.523C1712.97 -929.956 1531.14 -962.517 1373.82 -838.737C1217.25 -715.556 1168.7 -462.935 1064.48 -262.663Z"
      fill="#F2F4F8"></path>
    <path class="listivo-fill-primary-2" fill-rule="evenodd" clip-rule="evenodd"
      d="M975.692 -224.243C905.275 -88.9251 813.505 37.7957 781.309 167.661C742.14 325.657 695.57 545.096 781.64 581.951C972.517 654.642 1019.28 409.718 1145.68 334.628C1272.15 259.497 1513.52 308.956 1678.76 234.935C1786.63 186.611 2150.35 44.9503 2284.12 -434.639C2335.39 -618.439 1822.99 -774.553 1721.79 -834.103C1624.19 -891.536 1442.36 -924.097 1285.03 -800.317C1128.47 -677.136 1079.91 -424.515 975.692 -224.243Z"
      fill="#FA823E"></path>
    <path class="listivo-stroke-color-5" opacity="0.6"
      d="M1758.94 73.8918L1758.18 105.709L1731 89.1393L1758.94 73.8918Z" stroke="#FDFDFE"></path>
  </g>
</svg>